# xmcd
#
# Track frame offsets: 
#        150
#        26802
#        48200
#        68572
#        84882
#        108162
#        131497
#
# Disc length: 1890 seconds
#
# Revision: 0
# Processed by: cddbd v1.5.2PL0 Copyright (c) Steve Scherf et al.
# Submitted via: ExactAudioCopy v0.99pb4
#
DISCID=4c076007
DTITLE=Maryann Farra and Satin Soul - Never Gonna Leave You
DYEAR=1976
DGENRE=Soul
TTITLE0=Never Gonna Leave You
TTITLE1=Forget That Girl
TTITLE2=Just A Little Timing
TTITLE3=Do Those Little Things
TTITLE4=You Got To Be The One
TTITLE5=Stoned Out Of My Mind
TTITLE6=Living In The Footsteps Of Another Girl
EXTD=
EXTT0=
EXTT1=
EXTT2=
EXTT3=
EXTT4=
EXTT5=
EXTT6=
PLAYORDER=
